<?xml version="1.0" standalone="no"?>
<!DOCTYPE svg PUBLIC "-//W3C//DTD SVG 20010904//EN"
 "http://www.w3.org/TR/2001/REC-SVG-20010904/DTD/svg10.dtd">
<svg version="1.0" xmlns="http://www.w3.org/2000/svg"
 width="512.000000pt" height="512.000000pt" viewBox="0 0 512.000000 512.000000"
 preserveAspectRatio="xMidYMid meet">
<metadata>
Created by potrace 1.14, written by Peter Selinger 2001-2017
</metadata>
<g transform="translate(0.000000,512.000000) scale(0.100000,-0.100000)"
fill="#000000" stroke="none">
<path d="M2334 5020 c-110 -29 -225 -83 -342 -161 -222 -149 -405 -336 -705
-721 l-98 -126 -67 51 c-95 72 -297 203 -351 228 -25 11 -53 24 -61 28 -26 12
-54 1 -79 -31 -39 -49 -82 -180 -97 -298 -2 -19 -6 -46 -9 -60 -3 -14 -7 -54
-11 -90 -3 -36 -7 -87 -10 -115 -2 -27 -7 -108 -9 -180 -3 -71 -7 -135 -9
-141 -2 -6 -48 -28 -102 -49 -297 -115 -331 -140 -338 -256 -13 -200 125 -376
379 -486 83 -36 96 -40 126 -42 32 -2 13 -20 -104 -97 -56 -37 -124 -85 -150
-107 -78 -64 -153 -186 -164 -265 -5 -39 -4 -42 13 -35 27 10 86 44 107 61 23
20 22 1 -2 -29 -25 -33 -87 -166 -96 -207 -11 -53 -7 -125 11 -193 9 -35 18
-71 19 -79 2 -8 5 -15 6 -15 1 0 3 -27 4 -60 4 -117 19 -221 43 -285 7 -19 6
-17 20 -67 7 -23 17 -45 22 -48 6 -4 9 -9 6 -13 -2 -4 8 -32 23 -62 l26 -55
46 1 c25 1 60 9 78 18 l31 17 -6 -63 c-3 -35 -8 -66 -10 -70 -12 -20 62 -24
229 -14 30 2 47 -1 47 -8 0 -18 51 -135 87 -197 98 -173 293 -353 484 -446
191 -93 381 -138 714 -169 137 -13 1118 -5 1195 10 14 3 54 10 90 16 211 37
484 148 652 267 82 57 238 208 238 229 0 7 4 14 9 16 17 6 87 125 116 198 16
41 32 77 36 80 4 3 45 3 91 0 45 -3 98 -4 116 -2 l34 3 -7 74 -6 74 31 -15
c17 -9 52 -17 77 -17 l47 -2 39 89 c69 162 95 273 101 441 1 33 12 96 25 140
24 88 28 152 11 215 -13 48 -61 153 -90 195 -30 44 -25 48 23 15 24 -16 56
-34 72 -40 l28 -11 -7 43 c-10 61 -70 169 -129 230 -29 29 -104 88 -167 130
-132 87 -145 98 -185 153 -17 22 -32 42 -35 45 -4 3 -16 21 -27 40 -12 19 -31
45 -42 57 -12 12 -17 24 -13 26 4 3 43 12 87 21 103 21 115 23 157 30 47 7 84
22 93 36 12 19 -85 101 -184 155 -49 28 -91 53 -91 56 0 5 57 -8 180 -41 19
-5 84 -21 143 -36 102 -24 110 -25 141 -10 71 33 170 143 182 201 1 6 5 17 9
27 7 18 0 22 -90 38 -33 5 -69 12 -80 14 -29 6 -185 34 -215 40 -108 18 -164
34 -225 62 l-70 32 -1 54 c-2 69 -14 280 -19 321 -2 18 -6 57 -9 87 -4 30 -8
66 -11 80 -2 14 -7 42 -9 63 -16 120 -67 255 -111 293 -21 18 -32 21 -56 14
-67 -20 -303 -166 -437 -273 -35 -27 -67 -46 -71 -41 -5 5 -32 45 -61 89 -47
71 -216 302 -230 315 -3 3 -27 32 -54 65 -89 111 -131 158 -226 254 -157 160
-257 228 -407 278 -105 35 -256 40 -359 13z"/>
</g>
</svg>
